<svg width="71" height="62" viewBox="0 0 71 62" fill="none" xmlns="http://www.w3.org/2000/svg">
<path d="M70.9999 18.6C70.9999 30.8667 63.6666 45.3333 48.9999 62L39.5999 56.2C46.5332 45.5334 50.3999 37.4 51.1999 31.8L39.3999 24.6C39.3999 19.9333 40.5332 15.3333 42.7999 10.8C44.9332 6.26668 47.1332 2.73335 49.3999 0.200016C56.8666 0.200016 62.7999 2.20002 67.1999 6.20002C69.7332 8.46668 70.9999 12.6 70.9999 18.6ZM31.9999 18.6C31.9999 30.8667 24.6666 45.3333 9.9999 62L0.599903 56.2C7.53324 45.5333 11.3999 37.4 12.1999 31.8L0.399902 24.6C0.399903 19.9333 1.53324 15.3333 3.7999 10.8C5.93324 6.26668 8.13324 2.73334 10.3999 0.200012C17.8666 0.200013 23.7999 2.20001 28.1999 6.20001C30.7332 8.46668 31.9999 12.6 31.9999 18.6Z" fill="#4392AD"/>
</svg>
