<svg width="66" height="71" viewBox="0 0 66 71" fill="none" xmlns="http://www.w3.org/2000/svg">
<g clip-path="url(#clip0_1604_2900)">
<path d="M12.8317 52.4467H6.87292V54.1595H12.8317V52.4467Z" fill="#EB9E29"/>
<path d="M38.9486 32.3861C38.4814 32.3861 38.1022 32.7698 38.1022 33.2425C38.1022 33.7153 38.4814 34.0989 38.9486 34.0989H57.7661V32.3861H38.9486Z" fill="#EB9E29"/>
<path d="M56.9196 52.4468H52.6469C50.3989 52.4468 48.2862 53.3306 46.695 54.9406L33.2133 68.5816C32.7393 69.0612 32.0825 69.3215 31.4189 69.2873C30.735 69.2462 30.1256 68.931 29.699 68.3966C29.2791 67.8759 29.1166 67.1702 29.2588 66.4577C29.2859 66.3001 29.3401 66.1288 29.4078 65.9644C29.5432 65.6355 29.7261 65.3409 29.9969 65.0669L34.5405 60.4696C34.703 60.3052 34.791 60.0928 34.791 59.8667C34.791 59.6406 34.703 59.4214 34.5405 59.2638C34.2222 58.9418 33.667 58.9418 33.3487 59.2638L28.8526 63.8131H28.7442V63.9158L28.6697 63.9912C28.2228 64.4434 27.6269 64.69 26.9972 64.69C26.3675 64.69 25.7716 64.4434 25.3247 63.9912C24.4173 63.0663 24.4106 61.559 25.3247 60.5998L29.9969 55.8724C30.1594 55.708 30.2474 55.4956 30.2474 55.2695C30.2474 55.0434 30.1594 54.8242 29.9969 54.6666C29.8344 54.5022 29.6245 54.4131 29.3943 54.4131C29.164 54.4131 28.9541 54.5022 28.7916 54.6666L24.1262 59.3871C23.6996 59.8188 23.0902 60.0654 22.4469 60.0654C21.8104 60.0654 21.201 59.8188 20.7811 59.3871C20.3342 58.9418 20.0837 58.3389 20.0837 57.6949C20.0837 57.0508 20.3207 56.4753 20.7879 56.0026L25.4466 51.282C25.7716 50.9532 25.7716 50.4051 25.4466 50.0694C25.1148 49.7337 24.5799 49.7337 24.2548 50.0694L19.5826 54.7968C18.6617 55.6737 17.1856 55.7011 16.2918 54.8584C15.811 54.4062 15.5469 53.8033 15.5401 53.1525C15.5266 52.5221 15.7568 51.9261 16.1834 51.4602L24.7424 42.807C24.8913 42.6563 25.02 42.5398 25.1622 42.4439C25.2299 42.3891 25.3044 42.3343 25.3789 42.2794C25.4398 42.2383 25.5008 42.1972 25.5685 42.163L25.6362 42.1219C26.2659 41.7656 26.9769 41.5738 27.715 41.5738L32.5768 41.6012L35.651 44.7117C37.8245 46.9041 41.1425 47.4864 43.9052 46.1641C44.6297 45.8147 45.1443 45.1296 45.273 44.3348C45.4084 43.5401 45.1579 42.7179 44.5891 42.1356L36.7073 34.1675C36.6057 34.0647 36.4974 33.962 36.3823 33.866C36.0234 33.5577 35.678 33.3179 35.3124 33.1193C34.4457 32.6534 33.5044 32.4136 32.5226 32.4136H7.72605C7.25883 32.4136 6.87964 32.7972 6.87964 33.27C6.87964 33.7427 7.25883 34.1264 7.72605 34.1264H32.5226C33.6534 34.1264 34.7165 34.5717 35.5088 35.3802L43.3838 43.3551C43.5666 43.5332 43.6411 43.7867 43.6005 44.0471C43.5598 44.2937 43.4041 44.5061 43.1739 44.6157C41.0545 45.6366 38.5084 45.1844 36.8359 43.499L33.5248 40.1487C33.369 39.9911 33.1591 39.902 32.9221 39.8952L27.715 39.8678C27.715 39.8678 27.6473 39.8678 27.6202 39.8678C26.1169 39.8678 24.634 40.4981 23.5371 41.6012L15.0052 50.2338C14.2333 51.0286 13.8202 52.0768 13.8405 53.1867C13.8541 54.3103 14.3145 55.3517 15.1271 56.1191C15.9938 56.9481 17.2127 57.3317 18.4247 57.1605C18.3976 57.3454 18.3841 57.5373 18.3841 57.7154C18.3841 58.8116 18.8039 59.8462 19.5691 60.6272C20.341 61.4014 21.3635 61.8262 22.4469 61.8262C22.6297 61.8262 22.799 61.8125 22.9615 61.7919C22.8058 63.0526 23.2324 64.3201 24.1194 65.2176C25.02 66.1288 26.2862 66.5604 27.5525 66.3823C27.3899 67.5265 27.6879 68.6501 28.3786 69.5065C29.1099 70.4109 30.1797 70.959 31.3105 71.0138C31.3783 71.0206 31.4527 71.0206 31.5205 71.0206C32.5903 71.0206 33.6399 70.5822 34.3983 69.8217L47.8799 56.1807C49.153 54.8927 50.8458 54.1801 52.6334 54.1801H56.9061C57.3801 54.1801 57.7525 53.8033 57.7525 53.3237C57.7525 52.8441 57.3733 52.4673 56.9061 52.4673L56.9196 52.4468Z" fill="#EB9E29"/>
<path d="M51.3062 54.6665L50.1077 55.8792L50.2296 56.0025C50.6765 56.4547 50.9203 57.0576 50.9203 57.6948C50.9203 58.3319 50.6765 58.9349 50.2296 59.387C49.803 59.8187 49.1936 60.0653 48.5571 60.0653C47.9206 60.0653 47.3112 59.8187 46.8846 59.387L46.7627 59.2637L45.5642 60.4764L45.686 60.5997C46.6069 61.5315 46.6069 63.0525 45.686 63.9911C44.7651 64.9229 43.2619 64.9229 42.341 63.9911L42.2801 63.9432C42.2801 63.9432 42.2394 63.8884 42.2124 63.8678L42.0905 63.7445L40.8919 64.9572L41.0138 65.0805C41.9347 66.0123 42.0634 67.4784 41.3118 68.4171C40.8784 68.9515 40.269 69.2666 39.5919 69.3009C38.9215 69.3351 38.2647 69.0748 37.7975 68.602L37.6756 68.4787L36.4771 69.6914L36.5989 69.8147C37.3573 70.5821 38.4001 71.0206 39.47 71.0206C39.5377 71.0206 39.6054 71.0206 39.6731 71.0206C40.8175 70.9657 41.8873 70.4108 42.6186 69.5064C43.3093 68.6569 43.6005 67.5264 43.4312 66.3754C43.6276 66.4028 43.8239 66.4233 44.0068 66.4233C45.0902 66.4233 46.1126 65.9985 46.8778 65.2244C47.7716 64.32 48.1914 63.0525 48.0289 61.7919C48.205 61.8193 48.381 61.8261 48.5503 61.8261C49.6337 61.8261 50.6562 61.4013 51.4213 60.6203C52.1865 59.8461 52.6131 58.8115 52.6131 57.7153C52.6131 56.6191 52.1933 55.5846 51.4213 54.8104L51.2995 54.6871L51.3062 54.6665Z" fill="#EB9E29"/>
<path d="M39.856 8.58474C39.6326 8.55048 39.4091 8.61214 39.2263 8.74917C39.0435 8.88619 38.9284 9.08488 38.9013 9.31097C38.8674 9.53707 38.9284 9.76316 39.0638 9.94814C42.0025 13.8876 43.8037 17.9642 44.5553 22.4175C44.623 22.8286 44.9751 23.13 45.3882 23.13C45.4356 23.13 45.483 23.13 45.5304 23.1163C45.9908 23.0341 46.3023 22.5956 46.2211 22.1298C45.4221 17.4024 43.5193 13.0792 40.4113 8.9136C40.2759 8.72861 40.0795 8.61214 39.856 8.57788V8.58474Z" fill="black"/>
<path d="M26.0154 8.73541C25.792 8.76967 25.5956 8.89299 25.4602 9.07112C22.4131 13.2504 20.551 17.5188 19.7723 22.1228C19.691 22.5887 20.0025 23.0341 20.463 23.1094C20.5104 23.1163 20.5578 23.1231 20.6052 23.1231C21.0182 23.1231 21.3703 22.8217 21.438 22.4106C22.1693 18.0737 23.9299 14.0452 26.8212 10.0851C27.0989 9.70829 27.0176 9.16704 26.6452 8.88614C26.4623 8.74911 26.2389 8.6943 26.0154 8.72856V8.73541Z" fill="black"/>
<path d="M65.885 23.3698C61.4701 12.3255 48.6046 4.74795 33.8431 4.4739V0.856412C33.8431 0.383673 33.4639 0 32.9967 0C32.5295 0 32.1503 0.383673 32.1503 0.856412V4.4739C17.3821 4.74795 4.52333 12.3255 0.115205 23.3698C-0.142105 24.0069 0.0474921 24.6989 0.60274 25.1306C1.20539 25.6102 2.24817 25.7746 3.07427 25.1785C4.94315 23.822 7.29957 23.0752 9.71016 23.0752C13.5766 23.0752 17.118 24.9593 18.9462 27.9944C19.2645 28.522 19.8536 28.8508 20.5307 28.8714H20.5917C21.2485 28.8714 21.8444 28.5699 22.1829 28.0698C24.3023 24.9867 28.4396 23.0752 32.9899 23.0752C37.5403 23.0752 41.6843 24.9867 43.8037 28.0698C44.1491 28.5699 44.7449 28.8714 45.3814 28.8714C45.4085 28.8714 45.4424 28.8714 45.4695 28.8714C46.1398 28.8508 46.7289 28.522 47.0472 27.9944C48.8754 24.9593 52.4101 23.0752 56.2833 23.0752C58.7006 23.0752 61.0503 23.822 62.9124 25.1785C63.7452 25.7814 64.788 25.6101 65.3839 25.1374C65.9459 24.6989 66.1355 24.0275 65.8782 23.3766L65.885 23.3698ZM63.9078 23.7877C61.7612 22.2188 59.0595 21.3555 56.2833 21.3555C51.821 21.3555 47.7311 23.5548 45.6049 27.09C45.5913 27.1106 45.5236 27.1517 45.4153 27.1517C45.2934 27.1517 45.2054 27.1106 45.1918 27.09C42.7609 23.5548 38.0887 21.3555 32.9899 21.3555C27.8911 21.3555 23.2189 23.5548 20.7948 27.09C20.7813 27.1106 20.7135 27.1448 20.5713 27.1517C20.4698 27.1517 20.4021 27.1106 20.3885 27.09C18.2556 23.5548 14.1589 21.3555 9.71016 21.3555C6.94069 21.3555 4.23216 22.2188 2.08566 23.7877C1.97055 23.8699 1.82158 23.8494 1.78772 23.8425C1.77418 23.8425 1.76741 23.8425 1.75386 23.8357C6.0875 13.2641 18.6144 6.17987 33.0035 6.17987C47.3925 6.17987 59.9465 13.2641 64.2802 23.8288C64.2666 23.8288 64.2463 23.8425 64.2192 23.8425C64.1786 23.8425 64.0296 23.8699 63.9145 23.7877H63.9078Z" fill="black"/>
</g>
<defs>
<clipPath id="clip0_1604_2900">
<rect width="66" height="71" fill="white"/>
</clipPath>
</defs>
</svg>
