<svg width="71" height="71" viewBox="0 0 71 71" fill="none" xmlns="http://www.w3.org/2000/svg">
<g clip-path="url(#clip0_1604_2887)">
<path d="M45.37 60.53H56.96C58.49 60.53 59.74 59.28 59.74 57.75V43.97C59.74 43.42 59.29 42.97 58.74 42.97C58.19 42.97 57.74 43.42 57.74 43.97V57.75C57.74 58.18 57.39 58.53 56.96 58.53H45.37V60.53Z" fill="black"/>
<path d="M63.24 30.88H54.28C54.15 30.88 54.03 30.9 53.92 30.95C53.55 31.09 53.28 31.46 53.28 31.88C53.28 31.9 53.28 31.93 53.28 31.95C53.31 32.47 53.74 32.88 54.27 32.88H63.23C65.87 32.88 68.02 35.03 68.02 37.67V64.68C68.02 66.97 66.16 68.83 63.88 68.83H41.26C40.7 68.83 40.26 69.28 40.26 69.83C40.26 70.38 40.7 70.83 41.26 70.83H63.88C67.27 70.83 70.02 68.07 70.02 64.68V37.67C70.02 33.93 66.98 30.88 63.23 30.88H63.24Z" fill="black"/>
<path d="M35.56 30.95C35.45 30.9 35.33 30.88 35.2 30.88H26.26C22.51 30.88 19.47 33.93 19.47 37.67V38.02H21.47V37.67C21.47 35.03 23.62 32.88 26.26 32.88H35.2C35.73 32.88 36.16 32.47 36.19 31.95C36.2 31.93 36.2 31.9 36.2 31.88C36.2 31.46 35.93 31.09 35.56 30.95Z" fill="black"/>
<path d="M29.4499 27.89H30.4499L30.4599 27.88L30.4399 16.79C30.4399 8.63 36.8599 2 44.7499 2C52.6399 2 59.0599 8.63 59.0599 16.79V27.88H61.0599V16.79C61.0599 7.53 53.7399 0 44.7499 0C35.7599 0 28.4399 7.53 28.4399 16.79L28.4599 27.89H29.4499Z" fill="black"/>
<path d="M44.75 32.88C45.97 32.88 47.14 32.55 48.22 31.95C48.72 31.68 49.2 31.34 49.65 30.95C52.72 28.33 54.75 23.29 54.75 17.37C54.75 17.06 54.6 16.76 54.36 16.57C54.11 16.39 53.79 16.32 53.49 16.4C52.34 16.71 51.14 16.86 49.91 16.86C45.1 16.86 40.72 14.36 39.03 10.65C38.89 10.34 38.6 10.12 38.26 10.07C37.93 10.02 37.59 10.15 37.36 10.4C35.68 12.33 34.75 14.81 34.75 17.39C34.75 23.3 36.78 28.34 39.85 30.95C40.3 31.34 40.78 31.68 41.28 31.95C42.36 32.55 43.53 32.88 44.75 32.88ZM38 12.91C40.37 16.57 44.87 18.86 49.91 18.86C50.86 18.86 51.8 18.78 52.72 18.62C52.35 25.48 48.92 30.88 44.75 30.88C40.34 30.88 36.75 24.83 36.75 17.39C36.75 15.8 37.19 14.25 38 12.91Z" fill="black"/>
<path d="M40.27 65.8V45.08C40.27 43.91 39.32 42.96 38.15 42.96H4.16C2.99 42.96 2.04 43.91 2.04 45.08L2.01 68.83H42.27V70.83H1C0.74 70.83 0.48 70.72 0.3 70.54C0.11 70.35 0 70.09 0 69.83L0.04 45.07C0.04 42.81 1.89 40.96 4.16 40.96H38.15C40.42 40.96 42.27 42.81 42.27 45.08V65.8H40.27Z" fill="#4392AD"/>
</g>
<defs>
<clipPath id="clip0_1604_2887">
<rect width="70.03" height="70.83" fill="white"/>
</clipPath>
</defs>
</svg>
