<svg width="76" height="67" viewBox="0 0 76 67" fill="none" xmlns="http://www.w3.org/2000/svg">
<g clip-path="url(#clip0_1604_2870)">
<path d="M52.67 47.51V65.63C52.67 66.18 53.12 66.63 53.67 66.63C54.22 66.63 54.67 66.18 54.67 65.63V47.51C54.35 47.6 54.01 47.64 53.67 47.64C53.33 47.64 52.99 47.6 52.67 47.51Z" fill="#E1463E"/>
<path d="M46.4 65.63C46.4 66.18 46.84 66.63 47.4 66.63C47.96 66.63 48.4 66.18 48.4 65.63V44.03L46.4 42.03V65.63Z" fill="#E1463E"/>
<path d="M40.12 65.63C40.12 66.18 40.57 66.63 41.12 66.63C41.67 66.63 42.12 66.18 42.12 65.63V42.04L40.12 44.04V65.63Z" fill="#E1463E"/>
<path d="M65.22 65.63C65.22 66.18 65.67 66.63 66.22 66.63C66.77 66.63 67.22 66.18 67.22 65.63V35.74L65.22 37.75V65.63Z" fill="#E1463E"/>
<path d="M58.95 65.63C58.95 66.18 59.39 66.63 59.95 66.63C60.51 66.63 60.95 66.18 60.95 65.63V42.02L58.95 44.02V65.63Z" fill="#E1463E"/>
<path d="M70.22 25.67H70.21L59.24 36.66L53.67 42.23L48.12 36.68L48.09 36.65L44.97 33.52C44.78 33.34 44.52 33.23 44.26 33.23C44 33.23 43.74 33.34 43.55 33.53L40.49 36.59L40.34 36.74L34.17 42.93C33.78 43.32 33.78 43.95 34.17 44.34C34.56 44.73 35.19 44.73 35.58 44.34L40.12 39.79L44.26 35.65L48.4 39.79L52.67 44.06L52.96 44.35C53.15 44.54 53.41 44.64 53.67 44.64C53.93 44.64 54.19 44.54 54.38 44.35L60.95 37.78L65.22 33.5L67.22 31.5L71.63 27.09C72.02 26.7 72.02 26.07 71.63 25.68C71.23 25.29 70.61 25.29 70.22 25.67Z" fill="#E1463E"/>
<path d="M75.89 22.12C75.89 22.12 75.87 22.03 75.85 21.98C75.8 21.86 75.73 21.75 75.64 21.66C75.55 21.57 75.44 21.5 75.32 21.45C75.28 21.43 75.23 21.41 75.18 21.41C75.1 21.38 75.02 21.37 74.93 21.37H65.04C64.49 21.37 64.04 21.82 64.04 22.37C64.04 22.92 64.49 23.37 65.04 23.37H73.93V32.26C73.93 32.81 74.38 33.26 74.93 33.26C75.48 33.26 75.93 32.81 75.93 32.26V22.37C75.93 22.28 75.92 22.2 75.89 22.12Z" fill="#E1463E"/>
<path d="M40.86 21.46L31.37 11.97L35.79 7.55C36.18 7.16 36.18 6.53 35.79 6.14C31.83 2.18 26.56 0 20.97 0C9.41 0 0 9.41 0 20.97V39.31C0 39.58 0.11 39.83 0.29 40.02L6.55 46.28V55.54C6.55 56.09 7 56.54 7.55 56.54C8.1 56.54 8.55 56.09 8.55 55.54V45.87C8.55 45.6 8.44 45.35 8.26 45.16L2 38.9V20.97C2 10.51 10.51 2 20.97 2C25.7 2 30.15 3.74 33.63 6.88L29.95 10.56L28.19 8.8C27.8 8.41 27.17 8.41 26.78 8.8C26.39 9.19 26.39 9.82 26.78 10.21L39.15 22.58V26.1L36.1 29.15L32.46 25.51C32.27 25.32 32.02 25.22 31.75 25.22H20.96C18.87 25.22 17.17 23.52 17.17 21.44C17.17 20.89 16.72 20.44 16.17 20.44C15.62 20.44 15.17 20.89 15.17 21.44C15.17 24.63 17.76 27.22 20.96 27.22H22.58V34.26C20.09 32.95 17.25 32.22 14.25 32.22C13.7 32.22 13.25 32.67 13.25 33.22C13.25 33.77 13.7 34.22 14.25 34.22C17.48 34.22 20.49 35.17 23.02 36.81C27.47 39.7 30.41 44.7 30.41 50.38V55.54C30.41 56.09 30.85 56.54 31.41 56.54C31.97 56.54 32.41 56.09 32.41 55.54V50.38C32.41 49.01 32.26 47.67 31.96 46.38C31.71 45.26 31.36 44.19 30.9 43.16C29.55 40.04 27.34 37.37 24.58 35.46V27.22H31.33L35.38 31.27C35.58 31.47 35.83 31.56 36.09 31.56C36.35 31.56 36.6 31.46 36.8 31.27L40.85 27.22C41.04 27.03 41.14 26.78 41.14 26.51V22.16C41.14 21.89 41.03 21.64 40.85 21.45L40.86 21.46Z" fill="black"/>
<path d="M21.97 7.55005C21.97 7.00005 21.52 6.55005 20.97 6.55005C13.02 6.55005 6.56 13.02 6.56 20.96C6.56 21.51 7.01 21.96 7.56 21.96C8.11 21.96 8.56 21.51 8.56 20.96C8.56 14.12 14.13 8.55005 20.97 8.55005C21.52 8.55005 21.97 8.10005 21.97 7.55005Z" fill="black"/>
<path d="M34.19 58.5699H4.77002C4.22002 58.5699 3.77002 59.0199 3.77002 59.5699C3.77002 60.1199 4.22002 60.5699 4.77002 60.5699H34.19C34.74 60.5699 35.19 60.1199 35.19 59.5699C35.19 59.0199 34.74 58.5699 34.19 58.5699Z" fill="black"/>
<path d="M34.19 64.63H4.77002C4.22002 64.63 3.77002 65.08 3.77002 65.63C3.77002 66.18 4.22002 66.63 4.77002 66.63H34.19C34.74 66.63 35.19 66.18 35.19 65.63C35.19 65.08 34.74 64.63 34.19 64.63Z" fill="black"/>
</g>
<defs>
<clipPath id="clip0_1604_2870">
<rect width="75.93" height="66.63" fill="white"/>
</clipPath>
</defs>
</svg>
