<svg width="15" height="13" viewBox="0 0 15 13" fill="none" xmlns="http://www.w3.org/2000/svg">
<path d="M13.5938 0.851074C14.3555 0.851074 15 1.49561 15 2.25732C15 2.72607 14.7656 3.13623 14.4141 3.3999L8.05664 8.17529C7.70508 8.43896 7.26562 8.43896 6.91406 8.17529L0.556641 3.3999C0.205078 3.13623 0 2.72607 0 2.25732C0 1.49561 0.615234 0.851074 1.40625 0.851074H13.5938ZM6.35742 8.93701C7.03125 9.43506 7.93945 9.43506 8.61328 8.93701L15 4.13232V10.2261C15 11.2808 14.1504 12.1011 13.125 12.1011H1.875C0.820312 12.1011 0 11.2808 0 10.2261V4.13232L6.35742 8.93701Z" fill="white"/>
</svg>
