<svg width="12" height="16" viewBox="0 0 12 16" fill="none" xmlns="http://www.w3.org/2000/svg">
<path d="M4.92188 15.6245C3.39844 13.7202 0 9.1792 0 6.60107C0 3.49561 2.49023 0.976074 5.625 0.976074C8.73047 0.976074 11.25 3.49561 11.25 6.60107C11.25 9.1792 7.82227 13.7202 6.29883 15.6245C5.94727 16.064 5.27344 16.064 4.92188 15.6245ZM5.625 8.47607C6.65039 8.47607 7.5 7.65576 7.5 6.60107C7.5 5.57568 6.65039 4.72607 5.625 4.72607C4.57031 4.72607 3.75 5.57568 3.75 6.60107C3.75 7.65576 4.57031 8.47607 5.625 8.47607Z" fill="white"/>
</svg>
