<svg width="15" height="16" viewBox="0 0 15 16" fill="none" xmlns="http://www.w3.org/2000/svg">
<path d="M14.9707 12.3139L14.2676 15.2728C14.1797 15.7123 13.8281 16.0053 13.3887 16.0053C6.00586 15.976 0 9.97011 0 2.5873C0 2.14784 0.263672 1.79628 0.703125 1.70839L3.66211 1.00527C4.07227 0.917376 4.51172 1.15175 4.6875 1.53261L6.06445 4.72597C6.21094 5.10683 6.12305 5.54628 5.80078 5.78066L4.21875 7.06972C5.21484 9.0912 6.85547 10.7318 8.90625 11.7279L10.1953 10.1459C10.4297 9.85292 10.8691 9.73573 11.25 9.88222L14.4434 11.2592C14.8242 11.4643 15.0586 11.9037 14.9707 12.3139Z" fill="white"/>
</svg>
