<svg width="14" height="15" viewBox="0 0 14 15" fill="none" xmlns="http://www.w3.org/2000/svg">
<path d="M3.125 14.2692H0.21875V4.92544H3.125V14.2692ZM1.65625 3.67544C0.75 3.67544 0 2.89419 0 1.95669C0 0.675443 1.375 -0.137057 2.5 0.519193C3.03125 0.800443 3.34375 1.36294 3.34375 1.95669C3.34375 2.89419 2.59375 3.67544 1.65625 3.67544ZM11.0938 14.2692V9.73794C11.0938 8.64419 11.0625 7.26919 9.5625 7.26919C8.0625 7.26919 7.84375 8.42544 7.84375 9.64419V14.2692H4.9375V4.92544H7.71875V6.20669H7.75C8.15625 5.48794 9.09375 4.70669 10.5 4.70669C13.4375 4.70669 14 6.64419 14 9.14419V14.2692H11.0938Z" fill="white"/>
</svg>
