<svg width="149" height="49" viewBox="0 0 149 49" fill="none" xmlns="http://www.w3.org/2000/svg">
<g clip-path="url(#clip0_1604_2804)">
<path d="M28.2917 3.20707C28.2282 3.44386 28.1763 3.6611 28.1099 3.874C27.2027 6.77271 26.297 9.67214 25.3833 12.5694C24.2921 16.0308 23.1929 19.4892 22.0987 22.9491C20.9944 26.4438 19.8915 29.9385 18.7886 33.4339C18.5417 34.2152 18.2949 34.9973 18.0502 35.7794C17.4914 37.5636 15.8641 38.6947 13.9162 38.652C12.142 38.6129 10.5878 37.3435 10.0787 35.6179C9.37312 33.2246 8.60986 30.8487 7.87363 28.4641C7.1447 26.1035 6.41942 23.7413 5.68976 21.3807C4.90604 18.8469 4.11868 16.3139 3.33424 13.7802C2.34602 10.5903 1.36145 7.39981 0.369578 4.21072C0.268784 3.88703 0.124167 3.57565 0 3.25848V3.18607C1.72811 3.181 3.45695 3.17955 5.18505 3.16652C5.43558 3.16507 5.51373 3.28745 5.57435 3.49889C6.15063 5.50257 6.73568 7.50481 7.31926 9.50704C8.04746 12.006 8.77712 14.505 9.50532 17.0047C10.4095 20.1055 11.3138 23.2069 12.2151 26.3084C12.8213 28.3917 13.4224 30.4765 14.0286 32.5606C14.0608 32.6721 14.117 32.7764 14.2478 32.8901C14.4019 32.3926 14.5604 31.8965 14.7094 31.3976C15.6392 28.2911 16.5668 25.1838 17.4958 22.0773C18.3935 19.0743 19.2933 16.0728 20.1895 13.0698C21.1376 9.89372 22.0827 6.71622 23.0278 3.53945C23.0892 3.33452 23.1512 3.16507 23.4317 3.16652C24.9772 3.17593 26.5235 3.17086 28.069 3.17303C28.1274 3.17303 28.1858 3.19041 28.2917 3.20707Z" fill="#E1463E"/>
<path d="M149 12.8896V13.0345C148.933 13.1858 148.848 13.3314 148.801 13.4885C148.019 16.0729 147.292 18.6747 146.452 21.2396C145.318 24.6988 144.147 28.1479 142.9 31.5694C141.616 35.0938 140.244 38.5892 138.531 41.9368C137.591 43.7725 136.508 45.5141 134.935 46.9037C133.38 48.2781 131.556 48.9602 129.48 48.9971C126.955 49.0428 124.554 48.5301 122.284 47.4287C122.143 47.3606 122.011 47.2752 121.846 47.181C122.294 45.7603 122.738 44.3518 123.193 42.9072C123.81 43.1997 124.389 43.4966 124.987 43.7537C126.36 44.3446 127.771 44.7559 129.298 44.6393C130.539 44.5444 131.513 43.9688 132.313 43.0658C133.2 42.065 133.772 40.8774 134.305 39.6725C134.602 38.9997 134.871 38.314 135.126 37.6239C135.187 37.461 135.192 37.2394 135.131 37.0779C133.779 33.4507 132.411 29.8293 131.05 26.2057C129.753 22.7509 128.46 19.2939 127.163 15.839C126.859 15.0258 126.546 14.2162 126.241 13.4038C126.191 13.2712 126.158 13.1329 126.102 12.9468C126.67 12.8933 127.196 12.844 127.723 12.7933C128.86 12.6847 129.999 12.584 131.134 12.4588C131.47 12.4211 131.606 12.5493 131.704 12.8505C132.271 14.5805 132.855 16.3054 133.432 18.0324C134.313 20.6741 135.193 23.3164 136.076 25.9574C136.672 27.7416 137.274 29.5244 137.875 31.3065C137.916 31.4267 137.964 31.5441 138.009 31.6628C138.044 31.665 138.079 31.6672 138.113 31.6693C138.298 31.1559 138.498 30.6476 138.661 30.1284C139.418 27.725 140.197 25.3281 140.907 22.9117C141.843 19.732 142.722 16.5364 143.625 13.348C143.651 13.2553 143.683 13.1641 143.709 13.0707C143.9 12.3813 143.897 12.3994 144.617 12.4834C145.945 12.6391 147.275 12.773 148.604 12.9106C148.734 12.9237 148.868 12.8976 149 12.8896Z" fill="#E1463E"/>
<path d="M103.813 4.60694C103.331 5.61349 102.5 6.07259 101.416 6.18194C99.9987 6.32459 98.8739 5.77787 98.2684 4.62794C97.4978 3.16519 98.0252 1.16658 99.4158 0.403343C99.7686 0.209275 100.187 0.131068 100.575 0H101.598C101.709 0.0434481 101.817 0.104275 101.931 0.128896C103.16 0.387412 103.841 1.03479 104.038 2.26654C104.164 3.05223 104.174 3.85167 103.813 4.60694Z" fill="#E1463E"/>
<path d="M50.6461 37.7158C50.5935 37.2125 50.5687 36.7063 50.5227 36.2016C50.4679 35.5919 50.4029 34.9829 50.3408 34.3551C49.8317 34.4304 49.3804 34.5347 48.9246 34.5549C48.3637 34.581 47.9072 34.3312 47.7457 33.7765C47.6062 33.2964 47.493 32.7895 47.4894 32.2935C47.4675 29.0001 47.4799 25.706 47.4777 22.4119C47.4762 20.5502 47.3528 18.7015 46.8035 16.9049C46.0965 14.5963 44.5678 13.1119 42.2291 12.4645C40.5046 11.9873 38.7393 11.8707 36.9564 11.9605C34.8762 12.0655 32.8231 12.3602 30.7926 12.8215C30.4617 12.8961 30.3704 13.025 30.4165 13.3639C30.5545 14.3907 30.6619 15.4219 30.7597 16.4538C30.7868 16.7412 30.8598 16.8202 31.1651 16.7543C32.3388 16.4994 33.5111 16.2199 34.6995 16.0533C36.1581 15.8477 37.6357 15.7803 39.0928 16.0895C40.7398 16.4393 41.9764 17.3133 42.3189 19.0317C42.5103 19.9919 42.503 20.9912 42.5724 21.9731C42.5914 22.2425 42.3963 22.1911 42.2167 22.1686C41.1094 22.0303 40.0043 21.837 38.8927 21.7798C36.887 21.6755 34.9062 21.8565 33.0188 22.6111C31.645 23.1607 30.4946 23.9978 29.6444 25.2179C28.8819 26.3136 28.4897 27.5402 28.2954 28.8459C28.0661 30.3933 28.1216 31.9256 28.5313 33.4347C28.9674 35.043 29.7927 36.4116 31.1936 37.3783C33.0875 38.6861 35.2224 38.8701 37.4151 38.5377C39.5142 38.2198 41.3176 37.2465 42.874 35.8193C42.9544 35.7454 43.061 35.7005 43.1384 35.652C43.1896 35.6962 43.2882 35.9887 43.3276 36.1263C43.6891 37.3725 44.394 38.3146 45.7452 38.5587C47.3207 38.844 48.8647 38.5732 50.3868 38.1445C50.6337 38.075 50.6688 37.9381 50.6461 37.7158ZM42.2671 32.5484C40.8545 33.8373 39.2432 34.7063 37.2894 34.7533C35.3598 34.7997 34.0385 33.7533 33.5579 31.9017C33.2255 30.6207 33.2679 29.3419 33.6506 28.0862C34.1575 26.4251 35.3839 25.5416 37.0382 25.2122C38.8109 24.8581 40.5682 25.0123 42.3036 25.4902C42.5468 25.5568 42.5819 25.7154 42.5811 25.9276C42.5768 26.9399 42.5789 27.953 42.5789 28.9661C42.5789 29.9067 42.5687 30.8481 42.5855 31.788C42.5906 32.1016 42.5037 32.3326 42.2671 32.5484Z" fill="#E1463E"/>
<path d="M91.7358 28.7735C92.5108 32.1834 91.3056 35.7013 87.9232 37.4204C86.4186 38.1858 84.8125 38.5145 83.145 38.5717C80.2358 38.6717 77.5049 37.9859 74.9412 36.6354C74.5987 36.4551 74.2685 36.2436 73.9625 36.009C73.8595 35.9301 73.7682 35.7092 73.8047 35.5955C74.2254 34.2769 74.6717 32.9669 75.1077 31.6628C75.7556 32.0813 76.3618 32.5259 77.0162 32.8858C78.8196 33.8772 80.704 34.6563 82.8214 34.5513C83.4912 34.518 84.1785 34.392 84.8132 34.1791C86.3244 33.6715 86.8963 32.3601 86.7568 30.8764C86.6311 29.5389 85.8109 28.6743 84.6532 28.1811C83.126 27.5309 81.5432 27.0088 79.9809 26.441C78.9175 26.0551 77.8693 25.6401 76.9271 25.0022C75.3385 23.9261 74.4935 22.4105 74.2809 20.5364C74.0932 18.8854 74.2539 17.2851 75.0771 15.7984C75.8359 14.4276 76.9695 13.4479 78.3748 12.7824C80.601 11.7274 82.958 11.5355 85.3581 11.9236C87.6515 12.2936 89.625 13.2871 90.9492 15.2495C91.4145 15.9396 91.6906 16.7572 92.0324 17.5248C92.0645 17.5965 91.9769 17.7978 91.9009 17.8267C90.6695 18.3039 89.4307 18.763 88.1715 19.2337C88.005 18.8963 87.8597 18.5813 87.6968 18.2757C86.5398 16.1011 84.1982 15.3386 81.942 15.86C81.2043 16.0302 80.5433 16.3256 80.0189 16.8926C78.9861 18.0063 78.943 20.3308 80.5828 21.5162C81.5637 22.2259 82.6841 22.6154 83.8242 22.9674C85.3544 23.441 86.9094 23.8421 88.3329 24.6083C90.0501 25.533 91.2969 26.8451 91.7358 28.7735Z" fill="#E1463E"/>
<path d="M124.298 37.5976C123.41 37.8721 122.52 38.182 121.611 38.4195C120.073 38.8222 118.506 38.8902 116.948 38.5716C115.039 38.1813 113.726 37.0719 113.068 35.229C112.673 34.1204 112.582 32.9675 112.58 31.8089C112.57 26.7885 112.575 21.7681 112.575 16.7484C112.575 16.3771 112.389 16.1913 112.017 16.1908C111.189 16.1908 110.361 16.1843 109.533 16.1944C109.287 16.198 109.187 16.1278 109.189 15.8678C109.201 14.8301 109.203 13.7925 109.189 12.7548C109.185 12.4731 109.296 12.4072 109.554 12.4108C110.406 12.4217 111.258 12.3978 112.11 12.4224C112.488 12.4333 112.588 12.2971 112.582 11.9408C112.564 10.7945 112.582 9.64751 112.57 8.5012C112.567 8.23906 112.644 8.09351 112.895 7.97403C114.406 7.25279 115.908 6.51056 117.414 5.77701C117.487 5.74225 117.568 5.72704 117.706 5.68359V6.1427C117.706 8.06165 117.706 9.98061 117.706 11.8988C117.706 12.413 117.707 12.4144 118.239 12.4144C119.992 12.4151 121.745 12.4217 123.497 12.4086C123.824 12.4057 123.94 12.4897 123.932 12.833C123.908 13.7975 123.907 14.7642 123.932 15.7288C123.941 16.0894 123.85 16.2045 123.47 16.2002C121.705 16.1792 119.94 16.2002 118.175 16.1835C117.805 16.1799 117.698 16.2914 117.698 16.6557C117.709 21.3988 117.7 26.1411 117.714 30.8842C117.715 31.4707 117.787 32.0638 117.892 32.6431C118.123 33.9241 119.124 34.6048 120.465 34.5157C121.444 34.4498 122.345 34.1609 123.228 33.7749C123.369 33.7134 123.514 33.6634 123.704 33.5903C123.902 34.9241 124.091 36.2073 124.298 37.5976Z" fill="#E1463E"/>
<path d="M72.0729 15.7881C70.9152 16.6274 69.7444 17.4493 68.5422 18.2994C68.3786 18.0518 68.2289 17.8251 68.0791 17.5978C67.0909 16.0995 65.9194 15.862 64.211 16.5072C62.8013 17.0394 61.7401 18.0699 60.7285 19.1373C60.6182 19.2538 60.6036 19.4928 60.6036 19.6746C60.597 25.6603 60.5992 31.646 60.5977 37.6317C60.5977 38.2682 60.673 38.2015 60.0039 38.203C58.6162 38.2052 57.2284 38.1965 55.8407 38.2088C55.5536 38.2117 55.4375 38.1501 55.4382 37.8337C55.4463 29.483 55.4455 21.1322 55.439 12.7815C55.439 12.4969 55.523 12.4064 55.8107 12.4093C57.1013 12.4216 58.3912 12.4209 59.6818 12.4101C59.9477 12.4079 60.0368 12.4926 60.0521 12.7576C60.0959 13.5259 60.1712 14.2914 60.242 15.1538C60.7409 14.7099 61.1462 14.3145 61.5867 13.9633C63.0957 12.762 64.8011 11.9893 66.7505 11.9256C68.7694 11.8597 70.3864 12.6664 71.4981 14.3768C71.7223 14.7208 71.9385 15.072 72.1277 15.4348C72.1737 15.5238 72.1445 15.7367 72.0729 15.7881Z" fill="#E1463E"/>
<path d="M103.583 37.7873C103.583 38.09 103.512 38.2145 103.177 38.2102C101.729 38.1942 100.28 38.2037 98.8315 38.2022C98.7256 38.2022 98.619 38.187 98.4736 38.1761V37.7634C98.4736 29.4605 98.4758 21.1575 98.4663 12.8546C98.4656 12.5114 98.5525 12.402 98.9082 12.4064C100.32 12.4259 101.733 12.4238 103.144 12.4078C103.48 12.4042 103.583 12.5114 103.583 12.843C103.576 21.1575 103.576 29.4728 103.583 37.7873Z" fill="#E1463E"/>
</g>
<defs>
<clipPath id="clip0_1604_2804">
<rect width="149" height="49" fill="white"/>
</clipPath>
</defs>
</svg>
